<?xml version="1.0" encoding="UTF-8"?><svg id="a" xmlns="http://www.w3.org/2000/svg" viewBox="0 0 16 16"><path d="m3.9,12.8l.7-.9c.5.5,1,.8,1.8.8s1.4-.4,1.4-1.1-.5-1.3-2.2-1.3v-1c1.5,0,2-.5,2-1.2s-.4-1-1.1-1-1.1.3-1.5.7l-.7-.8c.6-.6,1.4-1,2.3-1,1.4,0,2.4.7,2.4,2s-.5,1.4-1.3,1.7h0c.9.3,1.6.9,1.6,1.9s-1.2,2.2-2.7,2.2-2-.5-2.6-1.1Z"/><path d="m14.6,4.3c0-.1-.2-.2-.3-.1l-1.3.7c-1.2-2.1-3.5-3.5-6.1-3.1-.3,0-.4.3-.4.5,0,.3.3.5.5.4.7,0,1.4,0,2.1.2,1.3.4,2.3,1.3,3,2.4l-1.3.7c0,0,0,0-.1.1,0,.1,0,.3.1.3l2.8,1.1c.1,0,.3,0,.3-.2l.6-3c0,0,0-.1,0-.2Z"/></svg>